<svg width="1006" height="832" viewBox="0 0 1006 832" fill="none" xmlns="http://www.w3.org/2000/svg">
<path d="M784.78 119.975H539.495C533.957 119.975 529.468 124.465 529.468 130.003V303.068C529.468 308.605 533.957 313.095 539.495 313.095H784.78C790.31 313.095 794.8 308.605 794.8 303.068V130.003C794.8 124.465 790.31 119.975 784.78 119.975Z" fill="#FEBB94"/>
<path d="M564.701 154.773H557.438L556.19 158.317H553.22L559.435 140.946H562.729L568.943 158.317H565.949L564.701 154.773ZM563.902 152.452L561.082 144.39L558.237 152.452H563.902ZM570.697 151.379C570.697 149.998 570.98 148.775 571.546 147.71C572.128 146.645 572.91 145.821 573.892 145.239C574.89 144.64 575.996 144.341 577.211 144.341C578.11 144.341 578.991 144.54 579.857 144.94C580.738 145.322 581.437 145.838 581.953 146.487V139.848H584.823V158.317H581.953V156.245C581.487 156.911 580.838 157.46 580.006 157.893C579.191 158.325 578.251 158.541 577.186 158.541C575.988 158.541 574.89 158.242 573.892 157.643C572.91 157.027 572.128 156.179 571.546 155.097C570.98 153.999 570.697 152.76 570.697 151.379ZM581.953 151.429C581.953 150.48 581.753 149.657 581.354 148.958C580.971 148.259 580.464 147.726 579.832 147.36C579.199 146.994 578.517 146.811 577.785 146.811C577.053 146.811 576.371 146.994 575.739 147.36C575.106 147.71 574.591 148.234 574.191 148.933C573.809 149.615 573.617 150.43 573.617 151.379C573.617 152.327 573.809 153.159 574.191 153.874C574.591 154.59 575.106 155.139 575.739 155.522C576.387 155.888 577.07 156.071 577.785 156.071C578.517 156.071 579.199 155.888 579.832 155.522C580.464 155.156 580.971 154.623 581.354 153.924C581.753 153.209 581.953 152.377 581.953 151.429ZM593.552 158.541C592.47 158.541 591.497 158.35 590.632 157.967C589.783 157.568 589.109 157.036 588.61 156.37C588.111 155.688 587.845 154.931 587.811 154.099H590.756C590.806 154.681 591.081 155.172 591.58 155.571C592.096 155.954 592.736 156.146 593.502 156.146C594.3 156.146 594.916 155.996 595.349 155.696C595.798 155.38 596.022 154.981 596.022 154.498C596.022 153.983 595.773 153.6 595.274 153.35C594.791 153.101 594.018 152.826 592.953 152.527C591.921 152.244 591.081 151.969 590.432 151.703C589.783 151.437 589.217 151.029 588.735 150.48C588.269 149.931 588.036 149.207 588.036 148.309C588.036 147.577 588.252 146.911 588.685 146.312C589.118 145.697 589.733 145.214 590.532 144.865C591.347 144.515 592.279 144.341 593.327 144.341C594.891 144.341 596.147 144.74 597.096 145.539C598.061 146.321 598.576 147.394 598.643 148.758H595.798C595.748 148.142 595.498 147.652 595.049 147.286C594.6 146.92 593.993 146.736 593.227 146.736C592.479 146.736 591.904 146.878 591.505 147.161C591.106 147.444 590.906 147.818 590.906 148.284C590.906 148.65 591.039 148.958 591.305 149.207C591.572 149.457 591.896 149.657 592.279 149.806C592.662 149.939 593.227 150.114 593.976 150.33C594.974 150.597 595.79 150.871 596.422 151.154C597.071 151.42 597.628 151.82 598.094 152.352C598.56 152.884 598.801 153.592 598.818 154.473C598.818 155.255 598.601 155.954 598.169 156.57C597.736 157.185 597.121 157.668 596.322 158.017C595.54 158.367 594.617 158.541 593.552 158.541Z" fill="white"/>
<path d="M712.665 228.122C712.665 238.116 709.701 247.885 704.149 256.195C698.597 264.504 690.705 270.981 681.472 274.805C672.239 278.63 662.079 279.63 652.277 277.681C642.476 275.731 633.472 270.919 626.405 263.852C619.339 256.785 614.526 247.782 612.576 237.98C610.627 228.178 611.627 218.018 615.452 208.785C619.276 199.552 625.753 191.66 634.062 186.108C642.372 180.556 652.141 177.592 662.135 177.592" stroke="white" stroke-width="17.1948" stroke-miterlimit="10"/>
<path d="M671.547 167.93C684.948 167.93 697.801 173.254 707.277 182.73C716.753 192.206 722.077 205.059 722.077 218.46" stroke="#1C85E8" stroke-width="17.1948" stroke-miterlimit="10"/>
<path d="M552.744 276.699H582.32" stroke="white" stroke-width="6.72632" stroke-miterlimit="10" stroke-linecap="round"/>
<path opacity="0.4" d="M552.744 293.257H613.865" stroke="white" stroke-width="6.72632" stroke-miterlimit="10" stroke-linecap="round"/>
<path d="M722.077 276.866H751.653" stroke="white" stroke-width="6.72632" stroke-miterlimit="10" stroke-linecap="round"/>
<path opacity="0.4" d="M722.077 293.424H783.2" stroke="white" stroke-width="6.72632" stroke-miterlimit="10" stroke-linecap="round"/>
<path d="M93.236 103.879H449.306C458.763 103.879 467.833 107.636 474.52 114.323C481.207 121.01 484.964 130.08 484.964 139.537V160.879H57.578V139.537C57.578 130.08 61.335 121.01 68.022 114.323C74.709 107.636 83.779 103.879 93.236 103.879Z" fill="#1C85E8"/>
<path d="M57.578 160.879H484.964V563.959C484.964 571.472 481.98 578.677 476.668 583.989C471.355 589.301 464.15 592.286 456.637 592.286H85.905C78.392 592.286 71.187 589.301 65.875 583.989C60.562 578.677 57.578 571.472 57.578 563.959V160.879Z" fill="url(#paint0_linear_700_2150)"/>
<path opacity="0.6" d="M275.526 515.444C357.367 515.444 423.713 449.099 423.713 367.257C423.713 285.416 357.367 219.07 275.526 219.07C193.684 219.07 127.339 285.416 127.339 367.257C127.339 449.099 193.684 515.444 275.526 515.444Z" stroke="white" stroke-width="30" stroke-miterlimit="10"/>
<path d="M97.05 142.541C101.881 142.541 105.797 138.625 105.797 133.794C105.797 128.964 101.881 125.048 97.05 125.048C92.219 125.048 88.303 128.964 88.303 133.794C88.303 138.625 92.219 142.541 97.05 142.541Z" fill="white"/>
<path d="M132.378 142.541C137.209 142.541 141.125 138.625 141.125 133.794C141.125 128.964 137.209 125.048 132.378 125.048C127.547 125.048 123.631 128.964 123.631 133.794C123.631 138.625 127.547 142.541 132.378 142.541Z" fill="white"/>
<path d="M165.572 142.541C170.402 142.541 174.318 138.625 174.318 133.794C174.318 128.964 170.402 125.048 165.572 125.048C160.741 125.048 156.825 128.964 156.825 133.794C156.825 138.625 160.741 142.541 165.572 142.541Z" fill="white"/>
<path d="M565.127 342.682H921.2C930.65 342.682 939.72 346.439 946.41 353.126C953.1 359.813 956.85 368.883 956.85 378.34V399.682H529.468V378.34C529.468 368.883 533.225 359.813 539.912 353.126C546.6 346.439 555.669 342.682 565.127 342.682Z" fill="#1C85E8"/>
<path d="M529.468 399.682H956.85V802.762C956.85 810.275 953.87 817.48 948.56 822.792C943.25 828.104 936.04 831.089 928.53 831.089H557.795C550.283 831.089 543.077 828.104 537.765 822.792C532.453 817.48 529.468 810.275 529.468 802.762V399.682Z" fill="url(#paint1_linear_700_2150)"/>
<path opacity="0.6" d="M765.365 763.572C847.21 763.572 913.55 697.227 913.55 615.385C913.55 533.544 847.21 467.198 765.365 467.198C683.524 467.198 617.178 533.544 617.178 615.385C617.178 697.227 683.524 763.572 765.365 763.572Z" stroke="white" stroke-width="30" stroke-miterlimit="10"/>
<path d="M568.94 381.344C573.771 381.344 577.687 377.428 577.687 372.597C577.687 367.767 573.771 363.851 568.94 363.851C564.11 363.851 560.194 367.767 560.194 372.597C560.194 377.428 564.11 381.344 568.94 381.344Z" fill="white"/>
<path d="M604.269 381.344C609.099 381.344 613.015 377.428 613.015 372.597C613.015 367.767 609.099 363.851 604.269 363.851C599.438 363.851 595.522 367.767 595.522 372.597C595.522 377.428 599.438 381.344 604.269 381.344Z" fill="white"/>
<path d="M637.462 381.344C642.293 381.344 646.209 377.428 646.209 372.597C646.209 367.767 642.293 363.851 637.462 363.851C632.632 363.851 628.716 367.767 628.716 372.597C628.716 377.428 632.632 381.344 637.462 381.344Z" fill="white"/>
<path d="M700.006 652.678L678.931 831.188H763.606L811.93 653.738L700.006 652.678Z" fill="#1F2D49"/>
<path d="M766.263 821.431L756.304 766.63L776.047 706.798H806.64L766.263 821.431Z" fill="#0D1B33"/>
<path d="M856.86 653.738C856.26 664.452 856.26 675.191 856.86 685.904C859.33 720.534 852.27 817.882 852.33 831.188H777.147C776.832 812.754 772.151 654.496 772.151 654.496L856.86 653.738Z" fill="#1F2D49"/>
<path d="M698.402 665.471L856.86 685.904V653.738L700.006 652.678L698.402 665.471Z" fill="#0D1B33"/>
<path d="M728.436 471.635C732.859 449.801 722.459 450.363 718.997 446.892C718.997 446.892 706.012 436.184 696.117 446.165C685.644 456.724 625.608 538.741 625.608 538.741L663.173 573.29L670.233 564.864L688.524 543.05L708.087 519.735L710.517 517.081L736.908 487.19C736.908 487.19 725.936 483.129 728.436 471.635Z" fill="#FEBB94"/>
<path d="M744.147 475.355C749.211 460.237 741.06 443.876 725.941 438.812C710.823 433.749 694.462 441.899 689.399 457.018C684.335 472.136 692.486 488.497 707.604 493.561C722.722 498.624 739.083 490.473 744.147 475.355Z" fill="#FEBB94"/>
<path d="M710.171 516.965C710.928 512.402 712.444 503.275 714.073 494.957L722.741 454.697C722.741 454.697 699.463 489.1 688.74 513.063C680.798 531.021 671.585 549.323 670.061 564.806L688.35 542.992L707.913 519.677L710.171 516.965Z" fill="#FF967C"/>
<path d="M634.733 432.427C632.778 413.963 637.802 413.068 637.871 403.057C637.906 393.275 652.678 375.164 645.632 375.53C638.587 375.896 633.64 382.629 633.64 382.629C632.595 373.853 634.36 359.249 625.38 353.738C616.399 348.228 614.285 350.895 606.972 353.087C587.45 359.082 598.347 384.915 598.547 393.101C598.724 398.254 607.786 417.526 608.197 421.082L611.083 434.788L634.733 432.427Z" fill="#FFCCB3"/>
<path d="M623.607 379.527L620.937 353.024L623.607 379.527Z" fill="#E56441"/>
<path d="M623.607 379.527L620.937 353.024" stroke="#E56441" stroke-width="1.20133" stroke-linecap="round"/>
<path d="M614.475 379.821L610.132 354.362L614.475 379.821Z" fill="#E56441"/>
<path d="M614.475 379.821L610.132 354.362" stroke="#E56441" stroke-width="1.20133" stroke-linecap="round"/>
<path d="M603.746 379.88L601.551 364.644L603.746 379.88Z" fill="#E56441"/>
<path d="M603.746 379.88L601.551 364.644" stroke="#E56441" stroke-width="1.20133" stroke-linecap="round"/>
<path d="M618.545 399.76C621.735 392.304 630.011 385.127 630.011 385.127L618.545 399.76Z" fill="#E56441"/>
<path d="M618.545 399.76C621.735 392.304 630.011 385.127 630.011 385.127" stroke="#E56441" stroke-width="1.20133" stroke-linecap="round"/>
<path d="M668.937 546.103L637.7 422.787C637.481 422.047 636.997 421.415 636.34 421.012C635.683 420.609 634.9 420.463 634.142 420.603L610.586 425.093C609.46 425.32 608.46 425.958 607.778 426.882C607.097 427.806 606.783 428.95 606.898 430.092L619.876 558.304L668.937 546.103Z" fill="#FEBB94"/>
<path d="M645.108 580.564C659.235 580.564 670.688 569.111 670.688 554.984C670.688 540.856 659.235 529.404 645.108 529.404C630.98 529.404 619.528 540.856 619.528 554.984C619.528 569.111 630.98 580.564 645.108 580.564Z" fill="#FEBB94"/>
<path d="M748.37 426.002C748.37 426.002 719.128 434.63 711.769 437.708C704.411 440.786 703.92 453.099 703.43 461.82C703.086 467.93 701.93 560.363 702.384 618.476C702.481 630.891 700.166 638.768 698.679 645.668C698.271 647.507 698.05 649.382 698.02 651.265C698.01 651.926 698.131 652.583 698.376 653.198C698.621 653.813 698.985 654.373 699.447 654.847C699.909 655.321 700.46 655.699 701.069 655.959C701.677 656.22 702.331 656.357 702.992 656.365L852.7 657.764C852.7 657.764 859.34 658.729 857.74 651.154C856.15 642.869 855.28 634.463 855.14 626.029C853.64 565.671 853.36 464.587 852.71 459.802C851.73 452.62 859.44 446.435 851.08 442.819L810.71 428.133L748.37 426.002Z" fill="#FEBB94"/>
<path d="M823.15 492.722C823.15 492.722 825.42 576.383 824.94 604.269C824.65 621.646 804.78 629.006 804.72 639.068C804.69 645.02 820.78 641.317 827.88 639.003C843.85 633.8 854.36 640.868 854.36 640.868L850.1 488.416L823.15 492.722Z" fill="#FF967C"/>
<path d="M755.128 396.435L764.054 443.062L767.208 446.399C767.208 446.399 765.959 447.893 769.546 444.296C778.004 435.816 800.28 425.481 799.36 422.151C798.04 417.379 794.21 387.656 794.21 387.656L755.128 396.435Z" fill="#FFCCB3"/>
<path d="M754.763 399.533H778.282L752.448 439.661L754.763 399.533Z" fill="#FF967C"/>
<path d="M822.87 379.232C829.74 362.211 808.75 360.052 805.12 359.828C801.49 359.603 803.92 332.066 803.92 332.066C803.92 332.066 766.825 313.379 756.349 317.832C756.349 317.832 741.31 348.962 734.202 369.653C727.095 390.343 730.166 401.478 737.63 404.49C747.529 409.488 760.533 411.076 769.83 408.777C786.39 404.683 796.9 391.465 796.9 391.465C797.18 391.425 797.34 391.406 797.34 391.406C797.34 391.406 816.39 395.307 822.87 379.232Z" fill="#FFCCB3"/>
<path d="M812.9 394.19C826.29 384.845 837.55 374.397 839.68 361.137C843.98 334.419 828.99 327.961 828.99 327.961C838.96 309.029 816.22 298.802 804.49 294.985C765.722 282.369 742.084 296.059 740.433 311.062C739.733 317.345 740.742 323.233 743.927 328.062C743.819 332.693 744.298 337.318 745.354 341.828L751.763 329.968C753.018 331.578 754.665 332.839 756.548 333.629C777.606 343.663 799.21 332.54 799.21 332.54C790.79 342.271 790.73 363.815 791.27 368.315C792.05 374.803 796.06 370.063 796.06 370.063C800.01 363.685 814.69 359.033 818.53 372.262C821.53 382.571 794.49 392.716 794.49 392.716L797.2 408.778C802.24 409.81 801.49 404.483 802.83 406.261C804.17 408.04 807.01 409.184 807.56 403.728C808.11 398.273 812.91 394.184 812.91 394.184L812.9 394.19Z" fill="#BC775C"/>
<path d="M770.955 363.662C772.167 361.319 771.905 358.777 770.37 357.983C768.836 357.19 766.61 358.445 765.398 360.787C764.187 363.129 764.449 365.671 765.983 366.465C767.518 367.259 769.744 366.004 770.955 363.662Z" fill="#080B09"/>
<path d="M749.882 352.589C751.093 350.247 750.831 347.705 749.297 346.911C747.762 346.117 745.536 347.373 744.324 349.715C743.113 352.057 743.375 354.599 744.909 355.393C746.444 356.186 748.67 354.931 749.882 352.589Z" fill="#080B09"/>
<path d="M752.542 360.386C752.542 360.386 753.887 366.498 749.84 365.499C746.01 364.413 743.163 366.068 746.165 370.379" stroke="#E56441" stroke-width="1.20133" stroke-linecap="round"/>
<path d="M745.45 375.446L745.465 375.453L745.48 375.458C747.82 376.27 752.492 377.892 755.583 379.022L755.588 379.024C755.688 379.06 755.777 379.122 755.844 379.204C755.912 379.287 755.955 379.386 755.97 379.492C755.985 379.597 755.97 379.705 755.928 379.803C755.888 379.897 755.823 379.98 755.74 380.041C754.835 380.622 753.67 381.291 752.435 381.806C751.189 382.327 749.909 382.674 748.773 382.644C747.657 382.615 746.695 382.225 745.997 381.273C745.281 380.295 744.793 378.658 744.808 376.032L744.809 375.992L744.802 375.952C744.79 375.87 744.799 375.785 744.83 375.707C744.861 375.629 744.912 375.561 744.978 375.509C745.044 375.458 745.122 375.425 745.205 375.414C745.288 375.403 745.373 375.414 745.45 375.446Z" fill="#E56441" stroke="#E56441"/>
<path d="M780.972 357.562L780.628 357.952C780.176 358.566 779.499 358.975 778.747 359.092C777.994 359.208 777.226 359.023 776.609 358.575L766.221 350.599C765.702 350.234 765.339 349.687 765.204 349.067C765.069 348.447 765.173 347.799 765.493 347.252C765.673 346.907 765.925 346.605 766.231 346.364C766.537 346.124 766.89 345.951 767.268 345.858C767.645 345.764 768.038 345.752 768.421 345.822C768.804 345.891 769.167 346.041 769.488 346.262L780.221 353.847C780.519 354.037 780.776 354.286 780.976 354.577C781.176 354.869 781.315 355.198 781.385 355.545C781.455 355.892 781.455 356.249 781.384 356.595C781.313 356.942 781.173 357.271 780.972 357.562Z" fill="#080B09"/>
<path d="M744.456 336.093L757.35 338.639C757.731 338.719 758.09 338.879 758.404 339.108C758.718 339.338 758.981 339.631 759.173 339.969C759.366 340.307 759.484 340.682 759.521 341.069C759.558 341.456 759.512 341.847 759.387 342.215C759.211 342.825 758.813 343.346 758.271 343.676C757.729 344.006 757.083 344.12 756.46 343.996L743.521 341.969C742.772 341.831 742.108 341.403 741.673 340.777C741.239 340.151 741.069 339.379 741.202 338.629L741.247 338.11C741.32 337.764 741.461 337.436 741.663 337.146C741.866 336.855 742.124 336.609 742.423 336.42C742.723 336.232 743.057 336.106 743.407 336.05C743.756 335.994 744.113 336.008 744.456 336.093Z" fill="#080B09"/>
<path d="M807.54 496.766L711.847 505.054C708.874 505.312 706.672 507.931 706.93 510.904L717.344 631.144C717.601 634.117 720.22 636.319 723.193 636.061L818.88 627.773C821.86 627.516 824.06 624.897 823.8 621.924L813.39 501.683C813.13 498.71 810.51 496.509 807.54 496.766Z" fill="#1C85E8"/>
<path d="M721.84 519.08L761.3 515.663" stroke="white" stroke-width="5.04786" stroke-miterlimit="10" stroke-linecap="round"/>
<path d="M723.359 533.296L741.346 531.738" stroke="white" stroke-width="5.04786" stroke-miterlimit="10" stroke-linecap="round"/>
<path d="M853.4 466.352C838.67 447.908 832.05 456.741 826.87 457.192C826.87 457.192 809.34 460.459 810.72 475.287C812.18 490.978 837.98 595.54 837.98 595.54L892.12 591.471L889.55 577.052L884.27 547.355L878.64 515.603L878.13 511.823L871.8 470.05C871.8 470.05 861.03 476.202 853.4 466.352Z" fill="#FEBB94"/>
<path d="M857.04 498.191C871.44 489.352 875.94 470.516 867.11 456.119C858.27 441.722 839.43 437.216 825.03 446.055C810.64 454.893 806.13 473.73 814.97 488.127C823.81 502.524 842.64 507.03 857.04 498.191Z" fill="#FEBB94"/>
<path d="M727.434 599.881L693.293 602.421L685.223 621.456L687.981 644.954C687.981 644.954 693.856 642.56 694.464 634.248C695.072 625.936 722.25 631.833 729.355 622.703" fill="#FFCCB3"/>
<path d="M857.66 569.091L725.205 594.06C724.409 594.243 723.709 594.714 723.24 595.382C722.771 596.051 722.565 596.869 722.664 597.68L725.87 622.886C726.037 624.091 726.646 625.191 727.579 625.972C728.511 626.753 729.701 627.16 730.917 627.112L867.36 621.775L857.66 569.091Z" fill="#FEBB94"/>
<path d="M865.5 621.978C880.47 621.978 892.6 609.843 892.6 594.874C892.6 579.905 880.47 567.77 865.5 567.77C850.53 567.77 838.39 579.905 838.39 594.874C838.39 609.843 850.53 621.978 865.5 621.978Z" fill="#FEBB94"/>
<path d="M322.114 369.147L368.193 563.728L371.513 592.286H292.94L240.992 466.628L250.588 372.474L322.114 369.147Z" fill="#1F2D49"/>
<path d="M273.334 544.86L284.697 448.722L288.457 581.44L273.334 544.86Z" fill="#0D1B33"/>
<path d="M197.736 368.54C197.736 368.54 176.25 404.632 175.968 434.857C175.545 480.221 172.311 592.286 172.311 592.286H267.11L284.697 448.722L259.296 368.54H197.736Z" fill="#1F2D49"/>
<path d="M322.114 369.147L196.996 370.433L184.837 395.595L324.228 378.076L322.114 369.147Z" fill="#0D1B33"/>
<path d="M466.421 168.462L473.082 154.499C474.411 151.281 476.495 148.43 479.159 146.187C483.226 142.883 489.294 137.055 490.786 132.242C493.32 124.557 505.178 102.689 488.208 91.4943C481.93 87.3673 483.483 88.3283 473.298 90.7513C463.113 93.1733 463.895 104.125 460.326 112.199C460.326 112.199 457.404 104.446 450.948 102.039C444.491 99.6323 453.191 121.146 450.724 130.577C448.258 140.007 452.477 142.431 445.484 159.588L466.421 168.462Z" fill="#FFCCB3"/>
<path d="M475.123 91.6282L470.995 112.311L475.123 91.6282Z" fill="#E56441"/>
<path d="M475.123 91.6282L470.995 112.311" stroke="#E56441" stroke-width="1.20536" stroke-linecap="round"/>
<path d="M486.698 92.5782L479.636 115.192L486.698 92.5782Z" fill="#E56441"/>
<path d="M486.698 92.5782L479.636 115.192" stroke="#E56441" stroke-width="1.20536" stroke-linecap="round"/>
<path d="M496.415 104.264L490 118.252L496.415 104.264Z" fill="#E56441"/>
<path d="M496.415 104.264L490 118.252" stroke="#E56441" stroke-width="1.20536" stroke-linecap="round"/>
<path d="M463.41 115.995C463.41 115.995 469.154 125.283 470.305 133.35L463.41 115.995Z" fill="#E56441"/>
<path d="M463.41 115.995C463.41 115.995 469.154 125.283 470.305 133.35" stroke="#E56441" stroke-width="1.20536" stroke-linecap="round"/>
<path d="M287.196 187.766C297.307 185.553 312.521 184.301 319.672 188.918L390.873 238.137L446.451 147.303L471.33 161.067L420.188 275.395C412.669 294.88 393.924 294.588 382.47 287.943L345.318 269.783L287.196 187.766Z" fill="#5661AE"/>
<path d="M332.415 235.027C332.415 235.027 332.275 229.17 346.087 251.739L382.47 287.943L345.319 269.783C311.352 256.134 321.978 240.432 332.415 235.027Z" fill="#465393"/>
<path d="M286.452 174.16C286.452 174.16 311.675 184.14 315.526 187.221C319.377 190.301 323.034 215.444 329.58 227.382C336.127 239.32 345.705 261.354 331.716 281.593C317.727 301.832 319.215 317.905 319.215 317.905L322.192 368.675L201.638 370.897C200.577 370.93 199.52 370.738 198.538 370.332C197.557 369.927 196.672 369.318 195.944 368.545C195.215 367.772 194.659 366.854 194.312 365.85C193.964 364.846 193.834 363.78 193.93 362.722C195.269 347.92 201.388 327.132 201.869 303.562C202.521 271.618 203.009 164.881 203.009 164.881L255.525 163.233C266.103 165.057 286.452 174.16 286.452 174.16Z" fill="#5661AE"/>
<path d="M330.902 282.795C330.902 282.795 314.457 286.331 300.807 287.041C287.156 287.751 294.251 298.381 306.786 299.687C319.32 300.994 321.749 301.888 321.749 301.888C324.02 295.178 327.093 288.767 330.902 282.795Z" fill="#465393"/>
<path d="M199.888 326.084L195.667 350.557C195.667 350.557 198.451 357.857 211.438 362.335C224.425 366.812 236.069 365.468 243.681 356.959C251.294 348.45 277.819 309.153 277.819 309.153L199.888 326.084Z" fill="#465393"/>
<path d="M223.677 208.513C223.677 208.513 241.246 224.532 242.28 236.416C243.313 248.301 245.703 281.439 268.281 284.744C295.956 288.795 303.2 292.74 290.371 295.84C277.542 298.941 248.425 293.917 248.425 307.208C248.425 316.667 237.112 323.744 231.428 318.576C225.744 313.409 180.471 234.866 223.677 208.513Z" fill="#465393"/>
<path d="M340.521 185.505L326.816 215.134L351.624 225.742L366.439 192.103L340.521 185.505Z" fill="#96BAFD"/>
<path d="M336.035 200.229L361.19 204.642L358.022 210.58L336.035 202.914V200.229Z" fill="#96BAFD"/>
<path d="M350.095 153.285C343.503 150.775 336.125 154.084 333.616 160.675L331.373 166.567C328.863 173.158 332.172 180.536 338.764 183.045C345.355 185.555 352.733 182.246 355.243 175.655L357.485 169.763C359.995 163.172 356.686 155.794 350.095 153.285Z" fill="#1C85E8"/>
<path d="M380.617 156.63C415.619 171.118 451.212 158.855 451.212 158.855L416.722 249.143C416.722 249.143 393.79 212.252 363.783 200.846C352.726 196.644 380.617 156.63 380.617 156.63Z" fill="#96BAFD"/>
<path d="M446.158 208.71C455.747 183.526 458.737 161.289 452.836 159.042C446.936 156.796 434.38 175.391 424.792 200.575C415.204 225.759 412.214 247.996 418.114 250.242C424.014 252.489 436.57 233.894 446.158 208.71Z" fill="white"/>
<path d="M446.161 208.707C455.749 183.523 459.429 161.549 454.38 159.627C449.33 157.704 437.464 176.562 427.876 201.746C418.288 226.93 414.608 248.904 419.657 250.827C424.706 252.749 436.572 233.892 446.161 208.707Z" fill="#1C85E8"/>
<path d="M361.511 149.356L385.671 158.554L368.837 202.771L344.677 193.572C343.192 193.007 341.834 192.155 340.679 191.065C339.524 189.975 338.594 188.667 337.944 187.218C337.294 185.769 336.936 184.206 336.89 182.618C336.844 181.03 337.112 179.449 337.677 177.965L345.904 156.356C346.469 154.872 347.321 153.513 348.411 152.358C349.501 151.203 350.809 150.273 352.258 149.623C353.707 148.973 355.27 148.615 356.858 148.569C358.446 148.523 360.027 148.791 361.511 149.356Z" fill="url(#paint2_linear_700_2150)"/>
<path d="M367.774 161.323L355.57 156.676C354.533 156.281 353.371 156.802 352.976 157.84C352.581 158.878 353.102 160.039 354.14 160.434L366.344 165.081C367.381 165.476 368.543 164.955 368.938 163.917C369.333 162.879 368.812 161.718 367.774 161.323Z" fill="white"/>
<path d="M363.715 169.678L351.511 165.031C350.473 164.636 349.312 165.157 348.916 166.195C348.521 167.233 349.042 168.394 350.08 168.789L362.284 173.436C363.322 173.831 364.483 173.31 364.878 172.272C365.273 171.234 364.752 170.073 363.715 169.678Z" fill="white"/>
<path d="M432.529 190.411L434.023 191.032C436.26 191.962 438.052 193.717 439.029 195.934C440.006 198.151 440.092 200.658 439.269 202.936C438.827 204.158 438.138 205.276 437.244 206.219C436.35 207.162 435.271 207.909 434.074 208.415C432.877 208.921 431.588 209.174 430.289 209.158C428.99 209.142 427.708 208.857 426.524 208.322L425.625 207.916C425.625 207.916 428.284 197.689 432.529 190.411Z" fill="url(#paint3_linear_700_2150)"/>
<path d="M308.448 237.033L320.03 223.975C320.03 223.975 318.978 212.392 320.03 207.969C321.083 203.547 321.082 201.651 324.031 199.334C326.979 197.018 336.035 192.384 336.035 192.384V202.914L363.331 210.391C363.331 210.391 367.322 216.731 361.19 220.195C364.607 225.344 360.396 229.632 360.396 229.632C360.396 229.632 362.56 235.52 357.192 236.646C357.192 236.646 358.145 241.061 352.337 242.928C352.337 242.928 350.612 245.824 343.686 246.69C341.779 246.928 336.036 247.446 336.036 247.446L325.086 258.303L308.448 237.033Z" fill="#FFCCB3"/>
<path d="M311.302 233.816L331.531 251.913L333.809 249.655L312.663 232.281L311.302 233.816Z" fill="#FCBA9F"/>
<path d="M360.646 220.206C360.646 220.206 354.604 219.65 351.747 218.622L360.646 220.206Z" fill="#E56441"/>
<path d="M360.646 220.206C360.646 220.206 354.604 219.65 351.747 218.622" stroke="#E56441" stroke-width="1.20536" stroke-linecap="round"/>
<path d="M359.522 229.452C359.522 229.452 353.479 228.896 350.623 227.868L359.522 229.452Z" fill="#E56441"/>
<path d="M359.522 229.452C359.522 229.452 353.479 228.896 350.623 227.868" stroke="#E56441" stroke-width="1.20536" stroke-linecap="round"/>
<path d="M357.147 236.483C357.147 236.483 351.104 235.927 348.248 234.899L357.147 236.483Z" fill="#E56441"/>
<path d="M357.147 236.483C357.147 236.483 351.104 235.927 348.248 234.899" stroke="#E56441" stroke-width="1.20536" stroke-linecap="round"/>
<path d="M351.747 242.885C351.747 242.885 345.705 242.329 342.848 241.301L351.747 242.885Z" fill="#E56441"/>
<path d="M351.747 242.885C351.747 242.885 345.705 242.329 342.848 241.301" stroke="#E56441" stroke-width="1.20536" stroke-linecap="round"/>
<path d="M229.655 189.874C229.655 189.874 224.391 160.27 200.708 164.668C184.83 167.617 178.61 176.476 180.906 200.092C182.51 216.603 194.477 290.238 198.78 320.319C203.196 351.192 230.672 356.638 249.218 341.285L335.27 255.257L308.789 231.569L242.249 286.302L229.655 189.874Z" fill="#5661AE"/>
<path fill-rule="evenodd" clip-rule="evenodd" d="M312.657 185.505L288.635 175.033C284.327 196.316 286.169 191.818 283.201 193.42C283.201 193.42 257.857 194.386 251.326 163.464L223.504 164.387C223.504 164.387 215.699 185.667 248.867 195.998C243.65 208.468 261.996 229.799 285.424 205.766C301.659 229.967 312.57 207.393 304.731 198.631C316.449 191.809 312.657 185.505 312.657 185.505Z" fill="white"/>
<path d="M289.645 147.566L288.227 187.252C288.227 187.252 290.168 195.943 281.249 194.978C272.33 194.014 260.323 186.991 253.573 179.277C246.824 171.564 247.284 170.945 250.176 165.883C253.069 160.821 266.651 122.24 266.651 122.24L289.645 147.566Z" fill="#FFCCB3"/>
<path d="M289.442 150.894L272.997 140.421C272.997 140.421 280.283 172.402 288.227 187.252L289.442 150.894Z" fill="#FCBA9F"/>
<path d="M271.068 42.7212C271.52 35.0982 269.858 27.4992 266.264 20.7622C260.317 10.0112 247.965 -4.85776 229.208 1.54724C210.451 7.95224 196.727 22.3632 203.818 42.7212C210.909 63.0792 230.608 69.5942 240.645 67.4252C250.682 65.2562 271.068 42.7212 271.068 42.7212Z" fill="#493212"/>
<path d="M277.109 45.5523C276.029 43.7303 274.412 42.2872 272.48 41.4202C270.548 40.5532 268.395 40.3052 266.316 40.7092C258.894 42.0772 251.082 47.9363 244.441 54.9683C237.8 61.9993 238.016 67.1022 241.033 70.2152C244.05 73.3272 277.109 45.5523 277.109 45.5523Z" fill="#1C85E8"/>
<path d="M332.343 92.0722C332.343 92.0722 328.385 130.309 309.781 147.72C297.648 159.075 286.523 156.166 269.934 133.442C254.723 112.607 253.386 102.474 253.386 102.474L269.461 66.3052C269.461 66.3052 334.235 57.0852 332.343 92.0722Z" fill="#FFCCB3"/>
<path d="M325.76 84.5853C325.76 84.5853 316.607 99.1563 299.84 99.3923C299.84 99.3923 289.736 108.86 274.337 103.879C274.337 103.879 281.023 93.7363 274.337 90.1823C262.983 84.1473 259.072 104.271 265.127 111.28C269.242 116.043 269.476 124.678 266.406 129.637C263.336 134.596 258.903 143.787 258.903 143.787C258.903 143.787 249.996 136.506 245.291 131.507C228.926 114.118 226.25 73.1253 253.285 53.5613C280.319 33.9963 308.777 49.6483 314.112 53.5613C314.112 53.5613 342.519 58.5223 342.57 88.0653C342.613 113.321 324.637 119.33 324.637 119.33L330.002 98.9432C330.002 98.9432 326.684 99.2993 325.76 84.5853Z" fill="#493212"/>
<path d="M295.891 132.41L307.954 138.328C307.9 138.389 307.84 138.456 307.774 138.526C307.402 138.923 306.86 139.436 306.178 139.9C304.818 140.824 302.946 141.53 300.749 140.816C297.367 139.364 296.218 137.115 295.881 135.254C295.709 134.307 295.746 133.446 295.827 132.821C295.847 132.668 295.869 132.531 295.891 132.41Z" fill="#E56441" stroke="#E56441"/>
<path d="M324.128 118.785C324.667 116.604 323.903 114.539 322.423 114.173C320.943 113.808 319.306 115.28 318.768 117.462C318.229 119.643 318.992 121.708 320.473 122.073C321.953 122.439 323.589 120.966 324.128 118.785Z" fill="#080B09"/>
<path d="M302.182 113.699C302.721 111.518 301.957 109.453 300.477 109.087C298.997 108.722 297.36 110.194 296.822 112.376C296.283 114.557 297.047 116.622 298.527 116.987C300.007 117.353 301.644 115.88 302.182 113.699Z" fill="#080B09"/>
<path d="M328.987 110.311L317.819 107.747C317.632 107.688 317.474 107.563 317.373 107.395C317.272 107.228 317.235 107.03 317.269 106.837C317.393 106.509 317.582 106.209 317.825 105.956C318.069 105.703 318.361 105.501 318.684 105.364C319.007 105.227 319.355 105.157 319.706 105.158C320.057 105.158 320.404 105.23 320.727 105.369L329.485 109.079C330.214 109.259 329.899 110.536 328.987 110.311Z" fill="#080B09"/>
<path d="M291.487 100.314L306.033 104.872C306.13 104.418 306.131 103.949 306.036 103.494C305.94 103.04 305.751 102.61 305.479 102.233C305.208 101.856 304.86 101.54 304.459 101.306C304.058 101.072 303.613 100.924 303.151 100.872L291.529 99.3572C291.165 99.2672 290.94 100.179 291.487 100.314Z" fill="#080B09"/>
<path d="M312.64 114.779L314.218 126.556L310.058 128.564" stroke="#E56441" stroke-width="1.22499" stroke-linecap="round"/>
<path d="M470.383 621.984H70.362C63.302 621.984 57.578 627.708 57.578 634.768V759.686C57.578 766.747 63.302 772.471 70.362 772.471H470.383C477.443 772.471 483.167 766.747 483.167 759.686V634.768C483.167 627.708 477.443 621.984 470.383 621.984Z" fill="#1C85E8"/>
<path d="M150.066 387.337H6.75999C3.02599 387.337 0 390.364 0 394.097V441.962C0 445.695 3.02599 448.722 6.75999 448.722H150.066C153.799 448.722 156.825 445.695 156.825 441.962V394.097C156.825 390.364 153.799 387.337 150.066 387.337Z" fill="#FEBB94"/>
<path d="M189.871 696.486H199.899C200.775 696.484 201.616 696.135 202.235 695.515C202.855 694.894 203.203 694.053 203.203 693.176C203.203 692.299 202.855 691.458 202.235 690.838C201.616 690.217 200.775 689.868 199.899 689.866H189.871C188.993 689.866 188.152 690.215 187.531 690.836C186.91 691.456 186.562 692.298 186.562 693.176C186.562 694.054 186.91 694.896 187.531 695.516C188.152 696.137 188.993 696.486 189.871 696.486Z" fill="white"/>
<path d="M170.619 660.587C170.619 660.056 170.492 659.533 170.247 659.062C170.002 658.59 169.647 658.185 169.213 657.879C168.778 657.574 168.276 657.378 167.75 657.307C167.224 657.236 166.688 657.293 166.188 657.473L104.061 679.839H89.598C88.72 679.839 87.878 680.188 87.258 680.809C86.637 681.429 86.288 682.271 86.288 683.149V703.203C86.288 704.081 86.637 704.923 87.258 705.544C87.878 706.164 88.72 706.513 89.598 706.513H101.329V733.285C101.329 733.72 101.415 734.151 101.581 734.552C101.747 734.954 101.991 735.319 102.298 735.626C102.606 735.933 102.971 736.177 103.372 736.343C103.774 736.51 104.204 736.595 104.639 736.595H122.186C122.621 736.595 123.052 736.509 123.453 736.343C123.855 736.177 124.22 735.933 124.527 735.626C124.834 735.318 125.078 734.953 125.244 734.552C125.411 734.15 125.496 733.72 125.496 733.285V714.23L166.188 728.879C166.688 729.059 167.224 729.116 167.75 729.045C168.276 728.974 168.778 728.778 169.212 728.473C169.647 728.167 170.002 727.762 170.247 727.29C170.491 726.819 170.619 726.296 170.619 725.765V660.587ZM92.908 699.893V686.458H101.329V699.893H92.908ZM118.877 729.975H107.949V707.913L118.877 711.846V729.975ZM107.949 700.877V685.475L164 665.297V721.056L107.949 700.877Z" fill="white"/>
<path d="M189.705 718.411L184.691 713.397C184.384 713.09 184.019 712.846 183.617 712.68C183.216 712.513 182.786 712.428 182.351 712.428C181.916 712.428 181.486 712.513 181.084 712.68C180.683 712.846 180.318 713.09 180.01 713.397C179.703 713.704 179.459 714.069 179.293 714.471C179.127 714.872 179.041 715.303 179.041 715.737C179.041 716.172 179.127 716.603 179.293 717.004C179.459 717.406 179.703 717.77 180.01 718.078L185.024 723.092C185.332 723.399 185.696 723.643 186.098 723.809C186.5 723.975 186.93 724.061 187.365 724.061C187.799 724.061 188.23 723.975 188.631 723.809C189.033 723.643 189.398 723.399 189.705 723.092C190.012 722.784 190.256 722.419 190.422 722.018C190.589 721.616 190.674 721.186 190.674 720.751C190.674 720.317 190.589 719.886 190.422 719.485C190.256 719.083 190.012 718.718 189.705 718.411Z" fill="white"/>
<path d="M180.01 672.955C180.631 673.576 181.473 673.924 182.351 673.924C183.229 673.924 184.071 673.576 184.691 672.955L189.705 667.941C190.326 667.321 190.674 666.479 190.674 665.601C190.674 664.723 190.326 663.881 189.705 663.261C189.084 662.64 188.242 662.291 187.364 662.291C186.487 662.291 185.645 662.64 185.024 663.261L180.01 668.274C179.39 668.895 179.041 669.737 179.041 670.615C179.041 671.492 179.39 672.334 180.01 672.955Z" fill="white"/>
<path d="M244.627 663.244H310.091" stroke="white" stroke-width="14.8881" stroke-miterlimit="10" stroke-linecap="round"/>
<path d="M244.627 736.543H365.939" stroke="white" stroke-width="14.8881" stroke-miterlimit="10" stroke-linecap="round"/>
<path opacity="0.4" d="M244.627 699.893H399.913" stroke="white" stroke-width="14.8881" stroke-miterlimit="10" stroke-linecap="round"/>
<path d="M998.33 489.421H924.56C920.53 489.421 917.26 492.691 917.26 496.724V564.033C917.26 568.066 920.53 571.336 924.56 571.336H998.33C1002.37 571.336 1005.64 568.066 1005.64 564.033V496.724C1005.64 492.691 1002.37 489.421 998.33 489.421Z" fill="#1C85E8"/>
<path d="M68.032 430.964C66.885 430.964 65.852 430.767 64.934 430.374C64.016 429.964 63.295 429.391 62.77 428.653C62.246 427.915 61.983 427.055 61.983 426.071H64.983C65.049 426.809 65.336 427.415 65.844 427.891C66.368 428.366 67.098 428.604 68.032 428.604C68.999 428.604 69.753 428.374 70.294 427.915C70.835 427.44 71.106 426.833 71.106 426.096C71.106 425.522 70.933 425.055 70.589 424.694C70.261 424.334 69.843 424.055 69.335 423.858C68.844 423.662 68.155 423.448 67.27 423.219C66.155 422.924 65.245 422.629 64.541 422.334C63.852 422.022 63.262 421.547 62.77 420.908C62.279 420.268 62.033 419.416 62.033 418.351C62.033 417.367 62.279 416.506 62.77 415.769C63.262 415.031 63.951 414.466 64.836 414.072C65.721 413.679 66.745 413.482 67.909 413.482C69.565 413.482 70.917 413.9 71.966 414.736C73.032 415.556 73.622 416.687 73.737 418.129H70.638C70.589 417.506 70.294 416.974 69.753 416.531C69.212 416.088 68.499 415.867 67.614 415.867C66.811 415.867 66.155 416.072 65.647 416.482C65.139 416.892 64.885 417.482 64.885 418.252C64.885 418.777 65.041 419.211 65.352 419.555C65.68 419.883 66.09 420.145 66.581 420.342C67.073 420.539 67.745 420.752 68.598 420.981C69.729 421.293 70.647 421.604 71.351 421.916C72.073 422.227 72.679 422.711 73.171 423.366C73.679 424.006 73.933 424.866 73.933 425.948C73.933 426.817 73.696 427.637 73.22 428.407C72.761 429.177 72.081 429.8 71.179 430.276C70.294 430.735 69.245 430.964 68.032 430.964ZM84.248 417.023C85.281 417.023 86.199 417.244 87.002 417.687C87.822 418.129 88.461 418.785 88.92 419.654C89.395 420.522 89.633 421.572 89.633 422.801V430.792H86.855V423.219C86.855 422.006 86.551 421.08 85.945 420.441C85.338 419.785 84.51 419.457 83.461 419.457C82.412 419.457 81.576 419.785 80.953 420.441C80.347 421.08 80.044 422.006 80.044 423.219V430.792H77.241V412.597H80.044V418.818C80.519 418.244 81.117 417.801 81.839 417.49C82.576 417.179 83.379 417.023 84.248 417.023ZM92.274 423.957C92.274 422.596 92.553 421.391 93.11 420.342C93.684 419.293 94.454 418.482 95.421 417.908C96.405 417.318 97.487 417.023 98.667 417.023C99.732 417.023 100.659 417.236 101.445 417.662C102.249 418.072 102.888 418.588 103.363 419.211V417.244H106.191V430.792H103.363V428.776C102.888 429.415 102.24 429.948 101.421 430.374C100.601 430.8 99.667 431.013 98.618 431.013C97.454 431.013 96.388 430.718 95.421 430.128C94.454 429.522 93.684 428.686 93.11 427.62C92.553 426.538 92.274 425.317 92.274 423.957ZM103.363 424.006C103.363 423.071 103.167 422.26 102.773 421.572C102.396 420.883 101.896 420.359 101.273 419.998C100.65 419.637 99.978 419.457 99.257 419.457C98.536 419.457 97.864 419.637 97.241 419.998C96.618 420.342 96.11 420.858 95.716 421.547C95.339 422.219 95.151 423.022 95.151 423.957C95.151 424.891 95.339 425.711 95.716 426.415C96.11 427.12 96.618 427.661 97.241 428.038C97.88 428.399 98.552 428.579 99.257 428.579C99.978 428.579 100.65 428.399 101.273 428.038C101.896 427.678 102.396 427.153 102.773 426.465C103.167 425.76 103.363 424.94 103.363 424.006ZM112.676 419.211C113.085 418.523 113.626 417.99 114.298 417.613C114.987 417.219 115.798 417.023 116.733 417.023V419.924H116.019C114.921 419.924 114.085 420.203 113.512 420.76C112.954 421.317 112.676 422.285 112.676 423.662V430.792H109.872V417.244H112.676V419.211ZM131.726 423.686C131.726 424.194 131.693 424.653 131.628 425.063H121.276C121.358 426.145 121.76 427.014 122.481 427.669C123.202 428.325 124.087 428.653 125.136 428.653C126.644 428.653 127.71 428.022 128.333 426.76H131.357C130.947 428.005 130.202 429.03 129.12 429.833C128.054 430.62 126.726 431.013 125.136 431.013C123.841 431.013 122.678 430.726 121.645 430.153C120.629 429.563 119.825 428.743 119.235 427.694C118.662 426.628 118.375 425.399 118.375 424.006C118.375 422.612 118.653 421.391 119.211 420.342C119.784 419.277 120.579 418.457 121.596 417.883C122.628 417.31 123.809 417.023 125.136 417.023C126.415 417.023 127.554 417.301 128.554 417.859C129.554 418.416 130.333 419.203 130.89 420.219C131.447 421.219 131.726 422.375 131.726 423.686ZM128.8 422.801C128.784 421.768 128.415 420.94 127.694 420.318C126.972 419.695 126.079 419.383 125.013 419.383C124.046 419.383 123.219 419.695 122.53 420.318C121.842 420.924 121.432 421.752 121.301 422.801H128.8Z" fill="white"/>
<path d="M41.402 422.317C40.432 422.317 39.475 422.531 38.598 422.943C37.721 423.356 36.946 423.957 36.328 424.704L28.452 420.233C28.958 418.808 28.958 417.252 28.452 415.828L36.327 411.355C37.38 412.622 38.868 413.448 40.5 413.672C42.132 413.895 43.788 413.5 45.142 412.563C46.497 411.626 47.451 410.216 47.817 408.61C48.183 407.004 47.935 405.32 47.121 403.888C46.306 402.457 44.985 401.382 43.418 400.876C41.851 400.37 40.151 400.47 38.653 401.155C37.156 401.84 35.969 403.062 35.328 404.578C34.686 406.095 34.635 407.797 35.186 409.349L27.311 413.822C26.445 412.777 25.278 412.025 23.969 411.668C22.66 411.311 21.273 411.366 19.996 411.826C18.72 412.286 17.617 413.129 16.837 414.239C16.057 415.349 15.638 416.673 15.638 418.03C15.638 419.386 16.057 420.71 16.837 421.821C17.616 422.931 18.72 423.773 19.996 424.234C21.273 424.694 22.66 424.749 23.969 424.392C25.278 424.035 26.445 423.283 27.31 422.238L35.186 426.71C34.719 428.029 34.684 429.463 35.086 430.804C35.488 432.145 36.306 433.323 37.422 434.168C38.538 435.013 39.895 435.481 41.294 435.504C42.694 435.526 44.064 435.103 45.208 434.295C46.351 433.487 47.207 432.337 47.653 431.01C48.098 429.683 48.11 428.248 47.686 426.914C47.262 425.58 46.425 424.415 45.295 423.589C44.165 422.762 42.802 422.317 41.402 422.317ZM41.402 402.859C42.25 402.859 43.079 403.11 43.784 403.582C44.49 404.053 45.039 404.722 45.364 405.506C45.689 406.29 45.774 407.152 45.608 407.984C45.443 408.816 45.034 409.58 44.435 410.179C43.835 410.779 43.071 411.187 42.239 411.353C41.407 411.518 40.545 411.433 39.761 411.109C38.977 410.784 38.308 410.234 37.837 409.529C37.366 408.823 37.114 407.994 37.115 407.146C37.116 406.01 37.568 404.92 38.372 404.116C39.175 403.312 40.265 402.86 41.402 402.859ZM22.238 422.317C21.39 422.317 20.561 422.066 19.856 421.595C19.151 421.124 18.601 420.454 18.277 419.671C17.952 418.888 17.867 418.026 18.032 417.194C18.198 416.362 18.606 415.598 19.205 414.999C19.805 414.399 20.569 413.991 21.401 413.825C22.232 413.66 23.094 413.745 23.878 414.069C24.661 414.394 25.33 414.943 25.802 415.648C26.273 416.353 26.524 417.182 26.524 418.03C26.523 419.166 26.071 420.256 25.267 421.06C24.464 421.863 23.374 422.315 22.238 422.317ZM41.402 433.2C40.554 433.2 39.725 432.949 39.019 432.478C38.314 432.007 37.764 431.337 37.44 430.554C37.115 429.77 37.03 428.908 37.195 428.076C37.361 427.244 37.769 426.48 38.369 425.881C38.968 425.281 39.732 424.872 40.564 424.707C41.396 424.542 42.258 424.626 43.042 424.951C43.825 425.276 44.495 425.825 44.966 426.531C45.437 427.236 45.688 428.065 45.688 428.913C45.687 430.05 45.235 431.139 44.431 431.943C43.628 432.746 42.538 433.198 41.402 433.2Z" fill="white"/>
<path d="M933.94 542.824L946.78 529.982C947.62 529.142 948.76 528.671 949.94 528.671C951.13 528.671 952.27 529.142 953.11 529.982L963.15 540.026C963.99 540.865 965.13 541.337 966.32 541.337C967.5 541.337 968.64 540.865 969.48 540.026L985.9 523.609" stroke="white" stroke-width="5.16228" stroke-miterlimit="10" stroke-linecap="round"/>
<path d="M978.28 520.653H987.41C987.82 520.653 988.22 520.817 988.51 521.109C988.8 521.4 988.96 521.796 988.96 522.208V530.469" stroke="white" stroke-width="5.16228" stroke-miterlimit="10" stroke-linecap="round"/>
<path d="M776.277 365.396C778.581 360.15 777.213 354.478 773.222 352.726C769.232 350.974 764.13 353.806 761.827 359.052C759.524 364.298 760.892 369.971 764.882 371.723C768.872 373.475 773.974 370.642 776.277 365.396Z" stroke="#080B09" stroke-miterlimit="10"/>
<path d="M753.383 355.614C755.686 350.368 754.318 344.695 750.328 342.943C746.337 341.191 741.235 344.024 738.932 349.27C736.629 354.516 737.997 360.188 741.988 361.94C745.978 363.692 751.08 360.86 753.383 355.614Z" stroke="#080B09" stroke-miterlimit="10"/>
<path d="M753.385 355.619C753.385 355.619 758.896 355.521 761.827 359.052" stroke="#080B09" stroke-miterlimit="10"/>
<path d="M775.609 366.703H799.36" stroke="#080B09" stroke-miterlimit="10"/>
<path d="M285.424 205.766C285.424 205.766 287.051 227.706 285.424 245.096" stroke="#96BAFD" stroke-miterlimit="10"/>
<path fill-rule="evenodd" clip-rule="evenodd" d="M771.345 431.306C793.52 417.42 797.2 408.777 797.2 408.777L806.54 426.873L780.633 446.399C779.596 443.657 778.326 441.01 776.837 438.486L769.546 444.296L771.345 431.306ZM744.511 426.757L754.078 419.597C754.078 419.597 753.327 426.231 763.23 430.742L764.054 443.062L759.259 438.412L752.874 446.841L744.511 426.757Z" fill="#1C85E8"/>
<path d="M769.546 444.296L771.345 431.306L776.837 438.486L769.546 444.296Z" fill="#1C85E8"/>
<path d="M763.23 430.742L759.259 438.412L764.054 443.062L763.23 430.742Z" fill="#1C85E8"/>
<path d="M764.054 443.062L767.076 480.394C767.118 480.916 767.336 481.408 767.694 481.79C768.052 482.172 768.529 482.422 769.047 482.498C769.388 482.548 769.735 482.522 770.064 482.421C770.394 482.319 770.696 482.146 770.95 481.913C771.203 481.681 771.402 481.394 771.531 481.075C771.66 480.756 771.716 480.412 771.696 480.068L769.546 444.296L767.208 446.399L764.054 443.062Z" fill="#1C85E8"/>
<path d="M777.343 459.327C778.938 459.327 780.231 458.034 780.231 456.44C780.231 454.845 778.938 453.552 777.343 453.552C775.748 453.552 774.456 454.845 774.456 456.44C774.456 458.034 775.748 459.327 777.343 459.327Z" fill="#1C85E8"/>
<path d="M778.282 476.333C779.877 476.333 781.17 475.041 781.17 473.446C781.17 471.851 779.877 470.558 778.282 470.558C776.687 470.558 775.395 471.851 775.395 473.446C775.395 475.041 776.687 476.333 778.282 476.333Z" fill="#1C85E8"/>
<defs>
<linearGradient id="paint0_linear_700_2150" x1="260.631" y1="159.853" x2="360.71" y2="1074.33" gradientUnits="userSpaceOnUse">
<stop stop-color="white"/>
<stop offset="1" stop-color="#94B9FF"/>
</linearGradient>
<linearGradient id="paint1_linear_700_2150" x1="732.522" y1="398.656" x2="832.6" y2="1313.13" gradientUnits="userSpaceOnUse">
<stop stop-color="white"/>
<stop offset="1" stop-color="#94B9FF"/>
</linearGradient>
<linearGradient id="paint2_linear_700_2150" x1="367.097" y1="151.362" x2="344.224" y2="249.304" gradientUnits="userSpaceOnUse">
<stop stop-color="white"/>
<stop offset="1" stop-color="#94B9FF"/>
</linearGradient>
<linearGradient id="paint3_linear_700_2150" x1="432.374" y1="190.366" x2="438.013" y2="229.776" gradientUnits="userSpaceOnUse">
<stop stop-color="white"/>
<stop offset="1" stop-color="#94B9FF"/>
</linearGradient>
</defs>
</svg>
